<svg width="286" height="58" viewBox="0 0 286 58" fill="none" xmlns="http://www.w3.org/2000/svg" role="img" aria-labelledby="pierhunter-title">
  <title id="pierhunter-title">PierHunter</title>
  <defs>
    <linearGradient id="badge-fill" x1="6" y1="6" x2="50" y2="50" gradientUnits="userSpaceOnUse">
      <stop stop-color="#FBFDFF"/>
      <stop offset="1" stop-color="#EAF2FF"/>
    </linearGradient>
    <linearGradient id="badge-stroke" x1="14" y1="14" x2="42" y2="42" gradientUnits="userSpaceOnUse">
      <stop stop-color="#2557D6"/>
      <stop offset="1" stop-color="#5EC4E0"/>
    </linearGradient>
    <linearGradient id="signal-fill" x1="17" y1="16" x2="42" y2="42" gradientUnits="userSpaceOnUse">
      <stop stop-color="#EAF2FF"/>
      <stop offset="1" stop-color="#FFFFFF"/>
    </linearGradient>
    <linearGradient id="eye-fill" x1="16" y1="17" x2="43" y2="39" gradientUnits="userSpaceOnUse">
      <stop stop-color="#FFFFFF"/>
      <stop offset="1" stop-color="#F1F7FF"/>
    </linearGradient>
    <linearGradient id="pier-fill" x1="16" y1="14" x2="43" y2="42" gradientUnits="userSpaceOnUse">
      <stop stop-color="#FFFFFF"/>
      <stop offset="1" stop-color="#EEF5FF"/>
    </linearGradient>
    <linearGradient id="word-fill" x1="66" y1="28" x2="276" y2="28" gradientUnits="userSpaceOnUse">
      <stop stop-color="#3E8BFF"/>
      <stop offset="0.25" stop-color="#245FEF"/>
      <stop offset="0.55" stop-color="#1D4ED8"/>
      <stop offset="0.82" stop-color="#172554"/>
      <stop offset="1" stop-color="#07111F"/>
    </linearGradient>
    <filter id="badge-shadow" x="0" y="0" width="60" height="60" filterUnits="userSpaceOnUse" color-interpolation-filters="sRGB">
      <feDropShadow dx="0" dy="2.5" stdDeviation="3" flood-color="#315899" flood-opacity="0.15"/>
    </filter>
  </defs>

  <g filter="url(#badge-shadow)">
    <rect x="5.5" y="5.5" width="47" height="47" rx="13.5" fill="url(#badge-fill)" stroke="#BDD2F0"/>
    <path d="M17.2 16.4H30.4C36.3 16.4 40.7 20.4 40.7 25.7C40.7 31 36.4 35 30.4 35H23.8V41.2" fill="url(#pier-fill)" stroke="#BFD0FF" stroke-width="1.2" stroke-linejoin="round"/>
    <path d="M19.5 40.8V18.9H30.2C34.8 18.9 38.1 21.6 38.1 25.7C38.1 29.9 34.8 32.6 30.2 32.6H24.6" stroke="url(#badge-stroke)" stroke-width="3.45" stroke-linecap="round" stroke-linejoin="round"/>
    <path d="M19.5 18.9H15.4M19.5 25.7H14.2M19.5 32.6H15.4" stroke="#8DB7FF" stroke-width="2.2" stroke-linecap="round"/>
    <path d="M25.2 25.7H43.3" stroke="#5EC4E0" stroke-width="3" stroke-linecap="round"/>
    <circle cx="43.3" cy="25.7" r="5.1" fill="url(#signal-fill)" stroke="#5EC4E0" stroke-width="1.5"/>
    <path d="M40.8 25.7H45.8M43.3 23.2V28.2" stroke="#2557D6" stroke-width="1.5" stroke-linecap="round"/>
    <path d="M40.5 38.4L35.5 33.7" stroke="#2557D6" stroke-width="2.5" stroke-linecap="round"/>
    <circle cx="42.4" cy="40.1" r="2.2" fill="#2557D6" stroke="#FFFFFF" stroke-width="1"/>
    <circle cx="15.4" cy="18.9" r="1.9" fill="#2557D6" stroke="#FFFFFF" stroke-width="0.9"/>
    <circle cx="14.2" cy="25.7" r="1.9" fill="#5EC4E0" stroke="#FFFFFF" stroke-width="0.9"/>
    <circle cx="15.4" cy="32.6" r="1.9" fill="#2557D6" stroke="#FFFFFF" stroke-width="0.9"/>
  </g>
  <text x="66" y="40.8" fill="url(#word-fill)" font-family="Inter Tight, Inter, Avenir Next, Segoe UI, sans-serif" font-size="36" font-weight="900" letter-spacing="-2">PierHunter</text>
</svg>
